<mxfile host="app.diagrams.net" agent="Mozilla/5.0 (Windows NT 10.0; Win64; x64) AppleWebKit/537.36 (KHTML, like Gecko) Chrome/134.0.0.0 Safari/537.36" version="26.1.1">
  <diagram name="Страница — 1" id="FvNxDE-1UvKXYeiz3MGR">
    <mxGraphModel dx="2074" dy="1132" grid="1" gridSize="10" guides="1" tooltips="1" connect="1" arrows="1" fold="1" page="1" pageScale="1" pageWidth="827" pageHeight="1169" math="0" shadow="0">
      <root>
        <mxCell id="0" />
        <mxCell id="1" parent="0" />
        <mxCell id="CDUzth1Q_bp18cF5P0q3-4" style="edgeStyle=orthogonalEdgeStyle;rounded=0;orthogonalLoop=1;jettySize=auto;html=1;exitX=0;exitY=1;exitDx=0;exitDy=0;entryX=1;entryY=0;entryDx=0;entryDy=0;curved=1;" edge="1" parent="1" source="CDUzth1Q_bp18cF5P0q3-1" target="CDUzth1Q_bp18cF5P0q3-2">
          <mxGeometry relative="1" as="geometry" />
        </mxCell>
        <mxCell id="CDUzth1Q_bp18cF5P0q3-5" style="edgeStyle=orthogonalEdgeStyle;rounded=0;orthogonalLoop=1;jettySize=auto;html=1;exitX=1;exitY=1;exitDx=0;exitDy=0;entryX=0;entryY=0;entryDx=0;entryDy=0;strokeColor=default;curved=1;" edge="1" parent="1" source="CDUzth1Q_bp18cF5P0q3-1" target="CDUzth1Q_bp18cF5P0q3-3">
          <mxGeometry relative="1" as="geometry" />
        </mxCell>
        <mxCell id="CDUzth1Q_bp18cF5P0q3-1" value="Main" style="ellipse;whiteSpace=wrap;html=1;aspect=fixed;" vertex="1" parent="1">
          <mxGeometry x="320" y="160" width="80" height="80" as="geometry" />
        </mxCell>
        <mxCell id="CDUzth1Q_bp18cF5P0q3-2" value="TCP" style="ellipse;whiteSpace=wrap;html=1;aspect=fixed;" vertex="1" parent="1">
          <mxGeometry x="160" y="280" width="80" height="80" as="geometry" />
        </mxCell>
        <mxCell id="CDUzth1Q_bp18cF5P0q3-3" value="UDP" style="ellipse;whiteSpace=wrap;html=1;aspect=fixed;" vertex="1" parent="1">
          <mxGeometry x="480" y="280" width="80" height="80" as="geometry" />
        </mxCell>
        <mxCell id="CDUzth1Q_bp18cF5P0q3-7" style="edgeStyle=orthogonalEdgeStyle;rounded=0;orthogonalLoop=1;jettySize=auto;html=1;exitX=0;exitY=1;exitDx=0;exitDy=0;entryX=0;entryY=0;entryDx=0;entryDy=0;curved=1;startArrow=block;startFill=1;endArrow=none;" edge="1" parent="1" source="CDUzth1Q_bp18cF5P0q3-6" target="CDUzth1Q_bp18cF5P0q3-1">
          <mxGeometry relative="1" as="geometry" />
        </mxCell>
        <mxCell id="CDUzth1Q_bp18cF5P0q3-8" style="edgeStyle=orthogonalEdgeStyle;rounded=0;orthogonalLoop=1;jettySize=auto;html=1;exitX=1;exitY=1;exitDx=0;exitDy=0;entryX=1;entryY=0;entryDx=0;entryDy=0;curved=1;" edge="1" parent="1" source="CDUzth1Q_bp18cF5P0q3-6" target="CDUzth1Q_bp18cF5P0q3-1">
          <mxGeometry relative="1" as="geometry" />
        </mxCell>
        <mxCell id="CDUzth1Q_bp18cF5P0q3-6" value="Argument&lt;div&gt;Parser&lt;/div&gt;" style="ellipse;whiteSpace=wrap;html=1;aspect=fixed;" vertex="1" parent="1">
          <mxGeometry x="320" width="80" height="80" as="geometry" />
        </mxCell>
        <mxCell id="CDUzth1Q_bp18cF5P0q3-36" style="edgeStyle=orthogonalEdgeStyle;rounded=0;orthogonalLoop=1;jettySize=auto;html=1;exitX=0.5;exitY=0;exitDx=0;exitDy=0;startArrow=block;startFill=0;endArrow=none;" edge="1" parent="1" source="CDUzth1Q_bp18cF5P0q3-9">
          <mxGeometry relative="1" as="geometry">
            <mxPoint x="370" y="560" as="targetPoint" />
          </mxGeometry>
        </mxCell>
        <mxCell id="CDUzth1Q_bp18cF5P0q3-9" value="Exit" style="ellipse;whiteSpace=wrap;html=1;" vertex="1" parent="1">
          <mxGeometry x="330" y="600" width="80" height="80" as="geometry" />
        </mxCell>
        <mxCell id="CDUzth1Q_bp18cF5P0q3-15" style="edgeStyle=orthogonalEdgeStyle;rounded=0;orthogonalLoop=1;jettySize=auto;html=1;exitX=0;exitY=1;exitDx=0;exitDy=0;entryX=1;entryY=0;entryDx=0;entryDy=0;curved=1;" edge="1" parent="1" target="CDUzth1Q_bp18cF5P0q3-17">
          <mxGeometry relative="1" as="geometry">
            <mxPoint x="172" y="350" as="sourcePoint" />
          </mxGeometry>
        </mxCell>
        <mxCell id="CDUzth1Q_bp18cF5P0q3-16" style="edgeStyle=orthogonalEdgeStyle;rounded=0;orthogonalLoop=1;jettySize=auto;html=1;exitX=1;exitY=1;exitDx=0;exitDy=0;entryX=0;entryY=0;entryDx=0;entryDy=0;strokeColor=default;curved=1;" edge="1" parent="1" target="CDUzth1Q_bp18cF5P0q3-18">
          <mxGeometry relative="1" as="geometry">
            <mxPoint x="228" y="350" as="sourcePoint" />
          </mxGeometry>
        </mxCell>
        <mxCell id="CDUzth1Q_bp18cF5P0q3-32" style="edgeStyle=orthogonalEdgeStyle;rounded=0;orthogonalLoop=1;jettySize=auto;html=1;exitX=0;exitY=1;exitDx=0;exitDy=0;" edge="1" parent="1" source="CDUzth1Q_bp18cF5P0q3-17">
          <mxGeometry relative="1" as="geometry">
            <mxPoint x="92" y="560" as="targetPoint" />
          </mxGeometry>
        </mxCell>
        <mxCell id="CDUzth1Q_bp18cF5P0q3-17" value="SEND" style="ellipse;whiteSpace=wrap;html=1;aspect=fixed;" vertex="1" parent="1">
          <mxGeometry x="80" y="402" width="80" height="80" as="geometry" />
        </mxCell>
        <mxCell id="CDUzth1Q_bp18cF5P0q3-33" style="edgeStyle=orthogonalEdgeStyle;rounded=0;orthogonalLoop=1;jettySize=auto;html=1;exitX=0;exitY=1;exitDx=0;exitDy=0;" edge="1" parent="1" source="CDUzth1Q_bp18cF5P0q3-18">
          <mxGeometry relative="1" as="geometry">
            <mxPoint x="252" y="560" as="targetPoint" />
          </mxGeometry>
        </mxCell>
        <mxCell id="CDUzth1Q_bp18cF5P0q3-18" value="RECIEVE" style="ellipse;whiteSpace=wrap;html=1;aspect=fixed;" vertex="1" parent="1">
          <mxGeometry x="240" y="402" width="80" height="80" as="geometry" />
        </mxCell>
        <mxCell id="CDUzth1Q_bp18cF5P0q3-19" style="edgeStyle=orthogonalEdgeStyle;rounded=0;orthogonalLoop=1;jettySize=auto;html=1;exitX=0;exitY=1;exitDx=0;exitDy=0;entryX=1;entryY=0;entryDx=0;entryDy=0;curved=1;" edge="1" parent="1" target="CDUzth1Q_bp18cF5P0q3-21">
          <mxGeometry relative="1" as="geometry">
            <mxPoint x="492" y="350" as="sourcePoint" />
          </mxGeometry>
        </mxCell>
        <mxCell id="CDUzth1Q_bp18cF5P0q3-20" style="edgeStyle=orthogonalEdgeStyle;rounded=0;orthogonalLoop=1;jettySize=auto;html=1;exitX=1;exitY=1;exitDx=0;exitDy=0;entryX=0;entryY=0;entryDx=0;entryDy=0;strokeColor=default;curved=1;" edge="1" parent="1" target="CDUzth1Q_bp18cF5P0q3-22">
          <mxGeometry relative="1" as="geometry">
            <mxPoint x="548" y="350" as="sourcePoint" />
          </mxGeometry>
        </mxCell>
        <mxCell id="CDUzth1Q_bp18cF5P0q3-34" style="edgeStyle=orthogonalEdgeStyle;rounded=0;orthogonalLoop=1;jettySize=auto;html=1;exitX=0;exitY=1;exitDx=0;exitDy=0;" edge="1" parent="1" source="CDUzth1Q_bp18cF5P0q3-21">
          <mxGeometry relative="1" as="geometry">
            <mxPoint x="412" y="560" as="targetPoint" />
          </mxGeometry>
        </mxCell>
        <mxCell id="CDUzth1Q_bp18cF5P0q3-21" value="SEND" style="ellipse;whiteSpace=wrap;html=1;aspect=fixed;" vertex="1" parent="1">
          <mxGeometry x="400" y="402" width="80" height="80" as="geometry" />
        </mxCell>
        <mxCell id="CDUzth1Q_bp18cF5P0q3-35" style="edgeStyle=orthogonalEdgeStyle;rounded=0;orthogonalLoop=1;jettySize=auto;html=1;exitX=0;exitY=1;exitDx=0;exitDy=0;" edge="1" parent="1" source="CDUzth1Q_bp18cF5P0q3-22">
          <mxGeometry relative="1" as="geometry">
            <mxPoint x="572" y="560" as="targetPoint" />
          </mxGeometry>
        </mxCell>
        <mxCell id="CDUzth1Q_bp18cF5P0q3-22" value="RECIEVE" style="ellipse;whiteSpace=wrap;html=1;aspect=fixed;" vertex="1" parent="1">
          <mxGeometry x="560" y="400" width="80" height="80" as="geometry" />
        </mxCell>
        <mxCell id="CDUzth1Q_bp18cF5P0q3-25" style="edgeStyle=orthogonalEdgeStyle;rounded=0;orthogonalLoop=1;jettySize=auto;html=1;exitX=0.5;exitY=1;exitDx=0;exitDy=0;entryX=1;entryY=0.5;entryDx=0;entryDy=0;" edge="1" parent="1" source="CDUzth1Q_bp18cF5P0q3-17" target="CDUzth1Q_bp18cF5P0q3-17">
          <mxGeometry relative="1" as="geometry" />
        </mxCell>
        <mxCell id="CDUzth1Q_bp18cF5P0q3-26" style="edgeStyle=orthogonalEdgeStyle;rounded=0;orthogonalLoop=1;jettySize=auto;html=1;exitX=0.5;exitY=1;exitDx=0;exitDy=0;entryX=1;entryY=0.5;entryDx=0;entryDy=0;" edge="1" parent="1" source="CDUzth1Q_bp18cF5P0q3-18" target="CDUzth1Q_bp18cF5P0q3-18">
          <mxGeometry relative="1" as="geometry" />
        </mxCell>
        <mxCell id="CDUzth1Q_bp18cF5P0q3-27" style="edgeStyle=orthogonalEdgeStyle;rounded=0;orthogonalLoop=1;jettySize=auto;html=1;exitX=0.5;exitY=1;exitDx=0;exitDy=0;entryX=1;entryY=0.5;entryDx=0;entryDy=0;" edge="1" parent="1" source="CDUzth1Q_bp18cF5P0q3-21" target="CDUzth1Q_bp18cF5P0q3-21">
          <mxGeometry relative="1" as="geometry" />
        </mxCell>
        <mxCell id="CDUzth1Q_bp18cF5P0q3-28" style="edgeStyle=orthogonalEdgeStyle;rounded=0;orthogonalLoop=1;jettySize=auto;html=1;exitX=0.5;exitY=1;exitDx=0;exitDy=0;entryX=1;entryY=0.5;entryDx=0;entryDy=0;" edge="1" parent="1" source="CDUzth1Q_bp18cF5P0q3-22" target="CDUzth1Q_bp18cF5P0q3-22">
          <mxGeometry relative="1" as="geometry" />
        </mxCell>
        <mxCell id="CDUzth1Q_bp18cF5P0q3-31" value="" style="edgeStyle=none;orthogonalLoop=1;jettySize=auto;html=1;endArrow=none;startArrow=none;rounded=0;startFill=0;dashed=1;" edge="1" parent="1">
          <mxGeometry width="100" relative="1" as="geometry">
            <mxPoint x="40" y="560" as="sourcePoint" />
            <mxPoint x="720" y="560" as="targetPoint" />
            <Array as="points">
              <mxPoint x="380" y="560" />
            </Array>
          </mxGeometry>
        </mxCell>
      </root>
    </mxGraphModel>
  </diagram>
</mxfile>
